<svg width="454" height="392" viewBox="0 0 454 392" fill="none" xmlns="http://www.w3.org/2000/svg">
<path d="M347.325 56.5447L208.747 0L175.174 82.2803L313.751 138.825L347.325 56.5447Z" fill="#2A2F35"/>
<path d="M236.212 93.8823C254.81 93.8823 269.887 78.8052 269.887 60.2067C269.887 41.6081 254.81 26.531 236.212 26.531C217.613 26.531 202.536 41.6081 202.536 60.2067C202.536 78.8052 217.613 93.8823 236.212 93.8823Z" fill="#09C372"/>
<path d="M299.151 52.043L288.758 47.8021L284.517 58.1954L294.91 62.4363L299.151 52.043Z" fill="#09C372"/>
<path opacity="0.5" d="M312.143 57.3439L301.749 53.103L297.509 63.4963L307.902 67.7372L312.143 57.3439Z" fill="#09C372"/>
<path opacity="0.2" d="M325.134 62.645L314.741 58.4042L310.5 68.7975L320.893 73.0383L325.134 62.645Z" fill="#09C372"/>
<path d="M293.85 65.0346L283.457 60.7937L279.216 71.187L289.609 75.4279L293.85 65.0346Z" fill="#2F2E41"/>
<path opacity="0.5" d="M306.842 70.3356L296.448 66.0947L292.207 76.488L302.601 80.7289L306.842 70.3356Z" fill="#2F2E41"/>
<path opacity="0.2" d="M319.833 75.6365L309.44 71.3956L305.199 81.7889L315.592 86.0298L319.833 75.6365Z" fill="#2F2E41"/>
<path d="M288.549 78.026L278.156 73.7852L273.915 84.1785L284.308 88.4193L288.549 78.026Z" fill="#FF6584"/>
<path opacity="0.5" d="M301.541 83.3272L291.147 79.0863L286.906 89.4796L297.3 93.7205L301.541 83.3272Z" fill="#FF6584"/>
<path opacity="0.2" d="M314.532 88.6282L304.139 84.3873L299.898 94.7806L310.291 99.0215L314.532 88.6282Z" fill="#FF6584"/>
<path opacity="0.5" d="M248.934 29.0267L223.489 91.3866C240.709 98.4131 261.231 90.5028 268.258 73.2826C275.284 56.0624 266.154 36.0532 248.934 29.0267Z" fill="#3F3D56"/>
<path d="M101.971 97.7894L77.0006 138.603C83.7446 142.983 88.5127 149.823 90.29 157.666C92.0673 165.509 90.7134 173.736 86.5165 180.595C82.3196 187.455 75.6111 192.406 67.819 194.394C60.0269 196.382 51.7665 195.251 44.7961 191.24L18.2459 234.636L274.384 391.346L358.109 254.5L101.971 97.7894Z" fill="#F2F2F2"/>
<path d="M449.077 286.142C449.077 296.65 442.829 300.32 435.123 300.32C434.944 300.32 434.766 300.318 434.588 300.314C434.231 300.306 433.877 300.289 433.528 300.265C426.573 299.773 421.169 295.915 421.169 286.142C421.169 276.027 434.094 263.264 435.065 262.32L435.067 262.318C435.104 262.282 435.123 262.264 435.123 262.264C435.123 262.264 449.077 275.633 449.077 286.142Z" fill="#09C372"/>
<path d="M434.614 298.712L439.718 291.581L434.601 299.495L434.588 300.314C434.231 300.306 433.877 300.289 433.528 300.265L434.078 289.751L434.074 289.67L434.083 289.654L434.135 288.661L429.006 280.728L434.151 287.917L434.163 288.128L434.579 280.184L430.187 271.985L434.632 278.789L435.065 262.32L435.067 262.264V262.318L434.994 275.305L439.366 270.157L434.976 276.424L434.861 283.537L438.942 276.711L434.844 284.583L434.779 288.537L440.705 279.037L434.757 289.917L434.614 298.712Z" fill="#3F3D56"/>
<path d="M37.4834 230.056C40.5132 230.056 42.9694 227.6 42.9694 224.57C42.9694 221.541 40.5132 219.084 37.4834 219.084C34.4535 219.084 31.9973 221.541 31.9973 224.57C31.9973 227.6 34.4535 230.056 37.4834 230.056Z" fill="#FF6584"/>
<path d="M80.7312 284.289V221.826" stroke="#2A2F35" stroke-width="2" stroke-miterlimit="10"/>
<path d="M80.7311 230.659C85.6096 230.659 89.5643 226.704 89.5643 221.826C89.5643 216.947 85.6096 212.992 80.7311 212.992C75.8527 212.992 71.8979 216.947 71.8979 221.826C71.8979 226.704 75.8527 230.659 80.7311 230.659Z" fill="#2A2F35"/>
<path d="M63.3345 256.799C50.5753 276.366 54.0714 301.253 54.0714 301.253C54.0714 301.253 78.2541 294.415 91.0132 274.848C103.772 255.281 100.276 230.395 100.276 230.395C100.276 230.395 76.0937 237.233 63.3345 256.799Z" fill="#2A2F35"/>
<path d="M54.0035 301.025C54.0035 301.025 53.6929 300.975 53.1212 300.86C52.6652 300.767 52.0374 300.635 51.2708 300.453C44.4176 298.837 26.1974 293.375 14.2852 279.015C-0.624025 261.032 0.00378798 235.909 0.00378798 235.909C0.00378798 235.909 22.8005 239.613 37.8221 255.762C38.473 256.456 39.1064 257.175 39.7221 257.92C52.695 273.566 53.9043 294.618 54.0002 299.822C54.0134 300.602 54.0035 301.025 54.0035 301.025Z" fill="#09C372"/>
<path d="M44.8082 256.799C57.5673 276.366 54.0713 301.253 54.0713 301.253C54.0713 301.253 29.8886 294.415 17.1295 274.848C4.3703 255.281 7.86631 230.395 7.86631 230.395C7.86631 230.395 32.049 237.233 44.8082 256.799Z" stroke="#2A2F35" stroke-width="2" stroke-miterlimit="10"/>
<path opacity="0.1" d="M54.0002 299.822C53.6631 300.229 53.3658 300.576 53.1212 300.86C52.5793 301.478 52.272 301.801 52.272 301.801C52.272 301.801 51.8986 301.332 51.2708 300.453C47.8244 295.649 36.7383 278.565 37.5941 258.832C37.6404 257.797 37.7164 256.774 37.8221 255.762C38.4731 256.456 39.1064 257.175 39.7221 257.92C52.695 273.566 53.9044 294.618 54.0002 299.822Z" fill="black"/>
<path d="M72.9187 260.259C71.9102 283.596 54.5863 301.802 54.5863 301.802C54.5863 301.802 38.8975 282.169 39.906 258.832C40.9145 235.495 58.2384 217.289 58.2384 217.289C58.2384 217.289 73.9272 236.921 72.9187 260.259Z" fill="#09C372"/>
<path d="M54.5863 301.141L58.395 218.241" stroke="#2A2F35" stroke-width="2" stroke-miterlimit="10"/>
<path d="M2.18475 299.186V389.455H42.6423C42.6423 361.041 58.7665 338.006 78.6566 338.006C98.5467 338.006 114.671 361.041 114.671 389.455H142.266C142.266 361.041 158.39 338.006 178.28 338.006C198.171 338.006 214.295 361.041 214.295 389.455H241.89C241.89 361.041 258.014 338.006 277.904 338.006C297.794 338.006 313.919 361.041 313.919 389.455H341.514C341.514 361.041 357.638 338.006 377.528 338.006C397.418 338.006 413.542 361.041 413.542 389.455H454V299.186H2.18475Z" fill="#2A2F35"/>
<path d="M63.9235 184.595C75.031 184.595 84.0354 175.59 84.0354 164.483C84.0354 153.375 75.031 144.371 63.9235 144.371C52.816 144.371 43.8116 153.375 43.8116 164.483C43.8116 175.59 52.816 184.595 63.9235 184.595Z" fill="#FF6584"/>
<path d="M240.784 139.372C248.375 139.372 254.528 133.219 254.528 125.628C254.528 118.038 248.375 111.885 240.784 111.885C233.194 111.885 227.04 118.038 227.04 125.628C227.04 133.219 233.194 139.372 240.784 139.372Z" fill="#2A2F35"/>
<path d="M234.223 132.572C234.223 132.572 229.747 142.484 228.468 142.804C227.189 143.124 239.02 148.879 239.02 148.879C239.02 148.879 241.258 136.729 242.217 136.089C243.177 135.45 234.223 132.572 234.223 132.572Z" fill="#FFB9B9"/>
<path opacity="0.1" d="M234.223 132.572C234.223 132.572 229.747 142.484 228.468 142.804C227.189 143.124 239.02 148.879 239.02 148.879C239.02 148.879 241.258 136.729 242.217 136.089C243.177 135.45 234.223 132.572 234.223 132.572Z" fill="black"/>
<path d="M207.684 213.79L199.37 237.132L208.323 240.649L223.671 210.272L207.684 213.79Z" fill="#FFB9B9"/>
<path d="M236.782 214.429C236.782 214.429 253.409 237.771 254.368 238.091C255.327 238.411 262.042 232.655 262.042 232.655C262.042 232.655 253.729 212.511 251.171 211.551C248.613 210.592 236.782 214.429 236.782 214.429Z" fill="#FFB9B9"/>
<path d="M198.091 232.975L184.981 267.189C184.981 267.189 185.94 269.108 184.981 269.427C184.022 269.747 181.784 274.863 181.784 275.183C181.784 275.503 179.545 275.822 179.545 276.782C179.545 277.741 177.627 285.415 177.627 285.415C177.627 285.415 181.144 293.089 183.382 290.851C185.621 288.613 186.58 284.136 186.58 284.136L189.777 275.822C189.777 275.822 189.458 271.346 191.696 270.706C193.934 270.067 195.213 262.073 195.213 262.073C195.213 262.073 198.731 258.556 199.37 257.596C200.01 256.637 211.201 239.69 210.242 239.37C209.283 239.05 198.091 232.975 198.091 232.975Z" fill="#13181C"/>
<path d="M252.45 237.452L262.042 231.057C262.042 231.057 278.67 261.433 278.67 262.073C278.67 262.712 278.03 264.631 278.67 265.271C279.309 265.91 284.745 276.142 288.262 277.101C291.78 278.061 292.419 281.898 289.541 282.537C286.663 283.177 282.826 284.776 281.867 282.537C281.306 281.22 280.665 279.939 279.949 278.7C279.949 278.7 276.751 279.66 276.431 279.02C276.062 278.078 275.742 277.117 275.472 276.142C275.472 276.142 272.914 271.666 272.914 270.067C272.905 269.613 272.741 269.176 272.451 268.827C272.16 268.479 271.76 268.239 271.315 268.148C271.315 268.148 267.798 259.835 265.56 258.556C263.321 257.277 261.403 250.881 261.403 250.881L252.45 237.452Z" fill="#13181C"/>
<path d="M240.938 139.926C246.06 139.926 250.211 135.774 250.211 130.653C250.211 125.532 246.06 121.38 240.938 121.38C235.817 121.38 231.666 125.532 231.666 130.653C231.666 135.774 235.817 139.926 240.938 139.926Z" fill="#FFB9B9"/>
<path d="M213.439 186.93C213.439 186.93 204.486 216.028 206.405 216.028C208.323 216.028 252.769 217.307 254.368 214.749C255.967 212.191 244.456 193.965 243.816 193.645C243.177 193.325 213.439 186.93 213.439 186.93Z" fill="#13181C"/>
<path d="M199.69 110.828L190.097 96.1196C190.097 96.1196 192.469 80.6899 189.272 83.5677C186.074 86.4455 185.062 98.067 185.062 98.067L196.173 114.985L199.69 110.828Z" fill="#FFB9B9"/>
<path d="M286.664 137.688L295.297 137.048C295.297 137.048 305.529 126.177 306.169 129.694C306.808 133.211 297.855 140.885 297.855 140.885L286.024 142.164L286.664 137.688Z" fill="#FFB9B9"/>
<path d="M223.672 140.885V137.688C223.672 137.688 215.358 132.252 215.678 131.293C215.997 130.333 215.038 129.694 215.038 129.694C215.038 129.694 214.079 128.415 214.079 128.095C214.079 127.775 212.8 127.456 212.8 127.456L204.806 118.183C204.806 118.183 200.329 109.23 199.37 109.549C198.411 109.869 193.295 111.788 193.934 113.067C194.574 114.346 212.48 141.845 212.48 141.845C212.48 141.845 213.439 147.92 215.038 147.92C216.637 147.92 223.672 140.885 223.672 140.885Z" fill="#2A2F35"/>
<path d="M245.095 144.722C245.095 144.722 252.13 144.403 252.45 144.722C252.769 145.042 257.246 144.722 257.246 144.722C257.246 144.722 269.397 141.845 270.356 140.885C271.315 139.926 287.303 135.769 287.942 137.688C288.582 139.606 290.181 143.443 288.582 144.083C286.983 144.722 243.816 155.594 243.816 155.594L245.095 144.722Z" fill="#2A2F35"/>
<path d="M235.976 116.85C239.117 116.85 241.664 114.304 241.664 111.163C241.664 108.022 239.117 105.476 235.976 105.476C232.836 105.476 230.289 108.022 230.289 111.163C230.289 114.304 232.836 116.85 235.976 116.85Z" fill="#2A2F35"/>
<path d="M228.394 108.083C228.394 106.677 228.914 105.321 229.855 104.276C230.796 103.232 232.09 102.573 233.488 102.426C233.292 102.406 233.094 102.396 232.896 102.396C231.388 102.396 229.941 102.995 228.875 104.061C227.808 105.128 227.209 106.574 227.209 108.083C227.209 109.591 227.808 111.037 228.875 112.104C229.941 113.17 231.388 113.77 232.896 113.77C233.094 113.77 233.292 113.759 233.488 113.739C232.09 113.592 230.796 112.933 229.855 111.889C228.914 110.844 228.394 109.488 228.394 108.083Z" fill="#2A2F35"/>
<path d="M242.383 128.401C247.618 128.401 251.861 125.855 251.861 122.714C251.861 119.574 247.618 117.027 242.383 117.027C237.148 117.027 232.905 119.574 232.905 122.714C232.905 125.855 237.148 128.401 242.383 128.401Z" fill="#2A2F35"/>
<path d="M231.506 137.528C231.506 137.528 228.628 139.766 227.988 140.086C227.349 140.406 223.512 137.208 222.872 137.208C222.233 137.208 213.919 146.801 213.919 146.801C213.919 146.801 215.464 148.581 213.919 157.673C213.34 161.082 212.19 175.66 212.19 177.579C212.19 179.498 205.925 184.212 211.681 188.369C217.436 192.526 244.935 197.003 245.255 194.445C245.575 191.886 242.058 185.172 243.656 181.974C245.255 178.777 245.255 166.946 245.255 166.946L247.174 154.475L248.772 144.563C248.772 144.563 241.258 142.484 240.619 142.484C239.979 142.484 237.101 146.961 231.506 137.528Z" fill="#2A2F35"/>
</svg>
