<svg width="30" height="37" viewBox="0 0 30 37" fill="none" xmlns="http://www.w3.org/2000/svg">
<path d="M2.97656 0.000182967C2.57925 0.00639359 2.20063 0.169984 1.9238 0.45505C1.64698 0.740115 1.49456 1.12337 1.5 1.52069V15.4279C1.04472 15.6908 0.666506 16.0687 0.403248 16.5237C0.139989 16.9787 0.000929619 17.495 0 18.0207C0 18.8163 0.31607 19.5794 0.87868 20.142C1.44129 20.7046 2.20435 21.0207 3 21.0207C3.79565 21.0207 4.55871 20.7046 5.12132 20.142C5.68393 19.5794 6 18.8163 6 18.0207C5.99958 17.4945 5.86077 16.9776 5.59748 16.522C5.3342 16.0664 4.95571 15.6881 4.5 15.425V1.52069C4.50275 1.32001 4.4652 1.12081 4.38957 0.934901C4.31395 0.748991 4.20179 0.580145 4.05974 0.438363C3.91768 0.296582 3.74862 0.184746 3.56256 0.10948C3.37651 0.0342146 3.17724 -0.00295145 2.97656 0.000182967V0.000182967ZM14.9766 0.000182967C14.5793 0.00639359 14.2006 0.169984 13.9238 0.45505C13.647 0.740115 13.4946 1.12337 13.5 1.52069V6.42499C13.0443 6.68809 12.6658 7.06643 12.4025 7.52204C12.1392 7.97764 12.0004 8.49448 12 9.02069C12 9.81634 12.3161 10.5794 12.8787 11.142C13.4413 11.7046 14.2044 12.0207 15 12.0207C15.7956 12.0207 16.5587 11.7046 17.1213 11.142C17.6839 10.5794 18 9.81634 18 9.02069C17.9991 8.49498 17.86 7.97875 17.5968 7.5237C17.3335 7.06865 16.9553 6.69077 16.5 6.42792V1.52069C16.5027 1.32001 16.4652 1.12081 16.3896 0.934901C16.314 0.748991 16.2018 0.580145 16.0597 0.438363C15.9177 0.296582 15.7486 0.184746 15.5626 0.10948C15.3765 0.0342146 15.1772 -0.00295145 14.9766 0.000182967V0.000182967ZM26.9766 0.000182967C26.5793 0.00639359 26.2006 0.169984 25.9238 0.45505C25.647 0.740115 25.4946 1.12337 25.5 1.52069V21.4279C25.0447 21.6908 24.6665 22.0687 24.4032 22.5237C24.14 22.9787 24.0009 23.495 24 24.0207C24 24.8163 24.3161 25.5794 24.8787 26.142C25.4413 26.7046 26.2044 27.0207 27 27.0207C27.7956 27.0207 28.5587 26.7046 29.1213 26.142C29.6839 25.5794 30 24.8163 30 24.0207C29.9996 23.4945 29.8608 22.9776 29.5975 22.522C29.3342 22.0664 28.9557 21.6881 28.5 21.425V1.52069C28.5027 1.32001 28.4652 1.12081 28.3896 0.934901C28.314 0.748991 28.2018 0.580145 28.0597 0.438363C27.9177 0.296582 27.7486 0.184746 27.5626 0.10948C27.3765 0.0342146 27.1772 -0.00295145 26.9766 0.000182967V0.000182967ZM13.5 14.8098V34.5207C13.5 34.9185 13.658 35.3001 13.9393 35.5814C14.2206 35.8627 14.6022 36.0207 15 36.0207C15.3978 36.0207 15.7794 35.8627 16.0607 35.5814C16.342 35.3001 16.5 34.9185 16.5 34.5207V14.8098C16.0185 14.9343 15.5205 15.0207 15 15.0207C14.4795 15.0207 13.9815 14.9343 13.5 14.8098ZM1.5 23.8098V34.5207C1.5 34.9185 1.65804 35.3001 1.93934 35.5814C2.22064 35.8627 2.60218 36.0207 3 36.0207C3.39782 36.0207 3.77936 35.8627 4.06066 35.5814C4.34196 35.3001 4.5 34.9185 4.5 34.5207V23.8098C4.0185 23.9343 3.5205 24.0207 3 24.0207C2.4795 24.0207 1.9815 23.9343 1.5 23.8098ZM25.5 29.8098V34.5207C25.5 34.9185 25.658 35.3001 25.9393 35.5814C26.2206 35.8627 26.6022 36.0207 27 36.0207C27.3978 36.0207 27.7794 35.8627 28.0607 35.5814C28.342 35.3001 28.5 34.9185 28.5 34.5207V29.8098C28.0185 29.9343 27.5205 30.0207 27 30.0207C26.4795 30.0207 25.9815 29.9343 25.5 29.8098Z" fill="#D7D7D7"/>
</svg>
