<svg width="79" height="79" viewBox="0 0 79 79" fill="none" xmlns="http://www.w3.org/2000/svg">
<path d="M39.2 0C38.1876 0 37.1878 0.0524747 36.2013 0.153125C15.9907 1.69566 0 18.6019 0 39.2C0 60.8105 17.5895 78.4 39.2 78.4C60.8105 78.4 78.4 60.8105 78.4 39.2C78.4 18.6019 62.4092 1.69566 42.1987 0.153125C41.2122 0.0524747 40.2124 0 39.2 0ZM39.2 6.53333C39.9914 6.53333 40.7645 6.59321 41.5415 6.64818C41.5457 6.6486 41.5501 6.64775 41.5543 6.64818C41.8695 6.68018 42.1746 6.75034 42.4858 6.79492C31.427 8.38471 22.8667 17.9145 22.8667 29.4C22.8667 40.8855 31.427 50.4153 42.4858 52.0051C41.4098 52.1592 40.3199 52.2667 39.2 52.2667C26.5335 52.2667 16.3333 42.0664 16.3333 29.4C16.3333 17.5295 25.2943 7.82099 36.8457 6.64818C36.8499 6.64788 36.8542 6.64848 36.8585 6.64818C37.629 6.57038 38.4083 6.53333 39.2 6.53333ZM45.7333 13.0667C54.794 13.0667 62.0667 20.3394 62.0667 29.4C62.0667 30.5236 61.9545 31.6213 61.7413 32.6794C60.2212 25.2426 53.6014 19.6 45.7333 19.6C37.8653 19.6 31.2454 25.2426 29.7254 32.6794C29.5122 31.6213 29.4 30.5236 29.4 29.4C29.4 20.3394 36.6727 13.0667 45.7333 13.0667ZM10.3359 23.8875C9.99441 25.6753 9.8 27.5149 9.8 29.4C9.8 45.5978 23.0022 58.8 39.2 58.8C54.6116 58.8 67.2822 46.8408 68.4788 31.7288C68.5571 30.9619 68.6 30.1869 68.6 29.4C68.6 28.6131 68.5571 27.8381 68.4788 27.0712C68.3935 25.9938 68.2631 24.9296 68.0641 23.8875C70.485 28.4531 71.8667 33.659 71.8667 39.2C71.8667 57.2795 57.2795 71.8667 39.2 71.8667C21.1205 71.8667 6.53333 57.2795 6.53333 39.2C6.53333 33.659 7.91496 28.4531 10.3359 23.8875ZM45.7333 26.1333C51.1837 26.1333 55.5333 30.4829 55.5333 35.9333C55.5333 41.3837 51.1837 45.7333 45.7333 45.7333C44.5688 45.7333 43.4735 45.499 42.4411 45.1336C46.2354 43.7777 49 40.1674 49 35.9333C49 31.6993 46.2354 28.089 42.4411 26.7331C43.4735 26.3677 44.5688 26.1333 45.7333 26.1333ZM39.2 32.6667C41.0458 32.6667 42.4667 34.0876 42.4667 35.9333C42.4667 37.7791 41.0458 39.2 39.2 39.2C37.3542 39.2 35.9333 37.7791 35.9333 35.9333C35.9333 34.0876 37.3542 32.6667 39.2 32.6667Z" fill="#F2DA4B"/>
</svg>
