<svg width="35" height="40" viewBox="0 0 35 40" fill="none" xmlns="http://www.w3.org/2000/svg">
<path d="M13.9378 0.000160177C13.7074 -0.0029664 13.4787 0.0397074 13.2649 0.125703C13.0512 0.2117 12.8567 0.339304 12.6927 0.501107C12.5286 0.662909 12.3984 0.855685 12.3095 1.06824C12.2206 1.28079 12.1749 1.50889 12.1749 1.73928H1.76389C1.53344 1.73602 1.30463 1.7786 1.09078 1.86454C0.876921 1.95047 0.682276 2.07806 0.518156 2.23987C0.354035 2.40169 0.223712 2.59451 0.134759 2.80713C0.0458073 3.01975 0 3.24793 0 3.47841C0 3.70888 0.0458073 3.93706 0.134759 4.14968C0.223712 4.3623 0.354035 4.55513 0.518156 4.71694C0.682276 4.87876 0.876921 5.00634 1.09078 5.09228C1.30463 5.17821 1.53344 5.22079 1.76389 5.21753H33.0681C33.2986 5.22079 33.5274 5.17821 33.7412 5.09228C33.9551 5.00634 34.1497 4.87876 34.3139 4.71694C34.478 4.55513 34.6083 4.3623 34.6973 4.14968C34.7862 3.93706 34.832 3.70888 34.832 3.47841C34.832 3.24793 34.7862 3.01975 34.6973 2.80713C34.6083 2.59451 34.478 2.40169 34.3139 2.23987C34.1497 2.07806 33.9551 1.95047 33.7412 1.86454C33.5274 1.7786 33.2986 1.73602 33.0681 1.73928H22.6572C22.6572 1.50889 22.6114 1.28079 22.5225 1.06824C22.4336 0.855685 22.3034 0.662909 22.1393 0.501107C21.9753 0.339304 21.7808 0.2117 21.5671 0.125703C21.3533 0.0397074 21.1246 -0.0029664 20.8943 0.000160177H13.9378ZM1.76389 8.69578V36.5218C1.76389 38.4435 3.32041 40 5.24214 40H29.5899C31.5116 40 33.0681 38.4435 33.0681 36.5218V8.69578H1.76389ZM12.1986 17.3914C12.6434 17.3914 13.0883 17.5609 13.4282 17.9009L17.416 21.8887L21.4038 17.9009C22.0838 17.2209 23.183 17.2209 23.863 17.9009C24.543 18.5809 24.543 19.6801 23.863 20.3601L19.8752 24.3479L23.863 28.3356C24.543 29.0156 24.543 30.1149 23.863 30.7949C23.5239 31.134 23.0786 31.3044 22.6334 31.3044C22.1882 31.3044 21.7429 31.134 21.4038 30.7949L17.416 26.8071L13.4282 30.7949C13.0891 31.134 12.6439 31.3044 12.1986 31.3044C11.7534 31.3044 11.3081 31.134 10.969 30.7949C10.289 30.1149 10.289 29.0156 10.969 28.3356L14.9568 24.3479L10.969 20.3601C10.289 19.6801 10.289 18.5809 10.969 17.9009C11.309 17.5609 11.7539 17.3914 12.1986 17.3914Z" fill="#F22D48"/>
</svg>
