<svg width="30" height="28" viewBox="0 0 30 28" fill="none" xmlns="http://www.w3.org/2000/svg">
<path d="M15 0C9.91565 0 5.76923 4.1711 5.76923 9.28571C5.76923 9.51486 5.80515 9.72729 5.83008 9.94542C5.82127 9.94893 5.81183 9.95094 5.80303 9.95449C5.80584 9.99386 5.81552 10.0309 5.81881 10.0701C2.43722 11.4493 0 14.6868 0 18.5714C0 23.686 4.14642 27.8571 9.23077 27.8571C11.4005 27.8571 13.3137 26.9826 14.8873 25.7125C14.9262 25.745 14.9606 25.7827 15 25.8146C15.0394 25.7827 15.0738 25.745 15.1127 25.7125C16.6863 26.9826 18.5995 27.8571 20.7692 27.8571C25.8536 27.8571 30 23.686 30 18.5714C30 14.6868 27.5628 11.4493 24.1812 10.0701C24.1845 10.0309 24.1942 9.99386 24.197 9.95449C24.1882 9.95094 24.1787 9.94893 24.1699 9.94542C24.1948 9.72729 24.2308 9.51486 24.2308 9.28571C24.2308 4.1711 20.0844 0 15 0ZM15 2.32143C18.8372 2.32143 21.9231 5.42569 21.9231 9.28571C21.9231 9.31297 21.9189 9.34009 21.9186 9.36733C21.5416 9.31922 21.1593 9.28571 20.7692 9.28571C18.585 9.28571 16.5808 10.0527 15 11.3283C16.9454 12.8987 18.2385 15.2458 18.4277 17.9027C20.9135 16.901 22.847 14.8389 23.7147 12.2782C26.0623 13.3885 27.6923 15.7771 27.6923 18.5714C27.6923 22.4315 24.6064 25.5357 20.7692 25.5357C19.1995 25.5357 17.7672 25.0075 16.6091 24.1256C17.7657 22.5758 18.4615 20.6586 18.4615 18.5714C18.4615 18.3451 18.4439 18.1244 18.4277 17.9027C17.3673 18.3298 16.2127 18.5714 15 18.5714C13.7873 18.5714 12.6327 18.3298 11.5723 17.9027C11.5561 18.1244 11.5385 18.3451 11.5385 18.5714C11.5385 20.6586 12.2343 22.5758 13.3909 24.1256C12.2328 25.0075 10.8005 25.5357 9.23077 25.5357C5.39358 25.5357 2.30769 22.4315 2.30769 18.5714C2.30769 15.7771 3.93775 13.3885 6.28531 12.2782C7.15329 14.8392 9.08736 16.901 11.5723 17.9027C11.7615 15.2458 13.0535 12.901 15 11.3306C13.4192 10.0538 11.415 9.28571 9.23077 9.28571C8.84068 9.28571 8.45835 9.31922 8.08143 9.36733C8.08107 9.34009 8.07692 9.31297 8.07692 9.28571C8.07692 5.42569 11.1628 2.32143 15 2.32143Z" fill="#D7D7D7"/>
</svg>
