<svg width="51" height="50" viewBox="0 0 51 50" fill="none" xmlns="http://www.w3.org/2000/svg">
<path d="M25.3915 0C11.369 0 0 11.369 0 25.3915C0 37.2895 8.19298 47.245 19.2383 50C19.1198 49.6572 19.0436 49.2594 19.0436 48.7664V44.4266C18.0131 44.4266 16.2865 44.4266 15.8527 44.4266C14.1155 44.4266 12.5709 43.6796 11.8218 42.2916C10.9903 40.7491 10.8464 38.3898 8.78544 36.9467C8.17393 36.4664 8.63944 35.9183 9.34405 35.9924C10.6454 36.3606 11.7245 37.2535 12.7402 38.5781C13.7516 39.9048 14.2277 40.2052 16.1172 40.2052C17.0334 40.2052 18.4046 40.1523 19.6953 39.9492C20.3893 38.1866 21.5891 36.5637 23.0554 35.7977C14.6001 34.9281 10.565 30.7215 10.565 25.0106C10.565 22.5518 11.6124 20.1735 13.3919 18.1697C12.8079 16.1807 12.0736 12.1244 13.6162 10.5798C17.4207 10.5798 19.7207 13.047 20.273 13.7135C22.1689 13.0639 24.251 12.6957 26.4389 12.6957C28.631 12.6957 30.7215 13.0639 32.6217 13.7177C33.1676 13.0554 35.4697 10.5798 39.2827 10.5798C40.8316 12.1265 40.0889 16.1997 39.4985 18.1845C41.2675 20.1841 42.3085 22.5561 42.3085 25.0106C42.3085 30.7173 38.2797 34.9217 29.8371 35.7956C32.1604 37.008 33.8553 40.4147 33.8553 42.9814V48.7664C33.8553 48.9865 33.8066 49.1452 33.7812 49.3335C43.6754 45.8654 50.7829 36.4706 50.7829 25.3915C50.7829 11.369 39.4139 0 25.3915 0Z" fill="#09C372"/>
</svg>
