<svg width="38" height="50" viewBox="0 0 38 50" fill="none" xmlns="http://www.w3.org/2000/svg">
<path d="M5.55556 0C2.48704 0 0 2.48704 0 5.55556V38.8889C4.56944e-05 39.1329 0.048319 39.3745 0.142046 39.5999C0.235774 39.8252 0.373107 40.0298 0.546152 40.2018C1.19955 42.5425 3.01918 44.4444 5.55556 44.4444H7.40741V40.7407H5.55556C4.5092 40.7407 3.7037 39.9352 3.7037 38.8889C3.7037 37.8425 4.5092 37.037 5.55556 37.037H33.3333C35.3796 37.037 37.037 35.3796 37.037 33.3333V3.7037C37.037 1.65741 35.3796 0 33.3333 0H5.55556ZM7.40741 5.55556H9.25926C10.2815 5.55556 11.1111 6.38519 11.1111 7.40741V9.25926C11.1111 10.2815 10.2815 11.1111 9.25926 11.1111H7.40741C6.38519 11.1111 5.55556 10.2815 5.55556 9.25926V7.40741C5.55556 6.38519 6.38519 5.55556 7.40741 5.55556ZM7.40741 14.8148H9.25926C10.2815 14.8148 11.1111 15.6444 11.1111 16.6667V18.5185C11.1111 19.5407 10.2815 20.3704 9.25926 20.3704H7.40741C6.38519 20.3704 5.55556 19.5407 5.55556 18.5185V16.6667C5.55556 15.6444 6.38519 14.8148 7.40741 14.8148ZM7.40741 24.0741H9.25926C10.2815 24.0741 11.1111 24.9037 11.1111 25.9259V27.7778C11.1111 28.8 10.2815 29.6296 9.25926 29.6296H7.40741C6.38519 29.6296 5.55556 28.8 5.55556 27.7778V25.9259C5.55556 24.9037 6.38519 24.0741 7.40741 24.0741ZM11.1111 40.7407V50L16.6667 46.2963L22.2222 50V40.7407H11.1111ZM25.9259 40.7407V44.4444H35.1852C35.6763 44.4444 36.1474 44.2493 36.4946 43.9021C36.8419 43.5548 37.037 43.0837 37.037 42.5926C37.037 42.1015 36.8419 41.6304 36.4946 41.2831C36.1474 40.9358 35.6763 40.7407 35.1852 40.7407H25.9259Z" fill="#09C372"/>
</svg>
